<svg width="456" height="96" viewBox="0 0 456 96" fill="none" xmlns="http://www.w3.org/2000/svg">
<path d="M32.125 5.25C38.7083 5.25 43.9167 6.41666 47.75 8.74999C51.5833 11.0833 55.3333 15.2083 59 21.125L92.625 75.25V15.875H81.75V6.49999H115.375V15.875H103.25V94H92.625L48.5 23.5V84.625H59.375V94H25.75V84.625H37.875V15.375C35.625 14.875 33.375 14.625 31.125 14.625C25.125 14.625 20.0833 16.2083 16 19.375C12 22.5417 10 26.75 10 32C10 34.5 10.5417 36.5833 11.625 38.25C12.7083 39.8333 14.2917 40.625 16.375 40.625C20.2917 40.625 22.25 37.3333 22.25 30.75H32.25C32.25 36.1667 31 40.75 28.5 44.5C26 48.1667 21.9583 50 16.375 50C10.7917 50 6.66667 48.25 4 44.75C1.33333 41.25 0 37 0 32C0 24.0833 2.79167 17.6667 8.375 12.75C14.0417 7.75 21.9583 5.25 32.125 5.25ZM138.452 95.25C132.702 95.25 128.202 93.625 124.952 90.375C121.702 87.0417 120.077 82.625 120.077 77.125C120.077 71.5417 122.244 66.875 126.577 63.125C130.91 59.375 137.327 57.5 145.827 57.5H159.452V51.125C159.452 43.4583 155.785 39.625 148.452 39.625C142.285 39.625 136.619 40.375 131.452 41.875V50.25H122.702V35.375C126.452 33.7917 130.869 32.5417 135.952 31.625C141.119 30.7083 145.41 30.25 148.827 30.25C155.494 30.25 160.702 32.1667 164.452 36C168.202 39.75 170.077 44.7917 170.077 51.125V86.5H180.327V91.75C177.244 93.6667 173.702 94.625 169.702 94.625C165.702 94.625 162.994 93.9583 161.577 92.625C160.16 91.2917 159.452 89.0417 159.452 85.875C153.202 92.125 146.202 95.25 138.452 95.25ZM139.577 85.875C146.744 85.875 153.369 81.8333 159.452 73.75V65.75H145.702C140.619 65.75 136.827 66.75 134.327 68.75C131.91 70.75 130.702 73.2917 130.702 76.375C130.702 79.375 131.452 81.7083 132.952 83.375C134.452 85.0417 136.66 85.875 139.577 85.875ZM183.885 39.625V32.75L193.51 31.5H194.76C197.426 25.25 199.218 19.75 200.135 15H205.385V31.5H224.01V39.625H205.385V78C205.385 80.8333 205.843 82.875 206.76 84.125C207.76 85.375 209.426 86 211.76 86C214.093 86 217.218 85.2083 221.135 83.625L225.26 90.75C220.51 93.75 215.426 95.25 210.01 95.25C204.593 95.25 200.676 93.8333 198.26 91C195.926 88.1667 194.76 84.5 194.76 80V39.625H183.885ZM270.771 39.625V31.5H291.021V86.5H301.271V91.75C298.188 93.6667 294.063 94.625 288.896 94.625C283.813 94.625 281.021 92.4167 280.521 88C271.771 92.9167 263.896 95.375 256.896 95.375C249.98 95.375 245.146 93.25 242.396 89C239.73 84.75 238.396 78.875 238.396 71.375V39.625H228.771V31.5H249.021V71.375C249.021 76.2083 249.646 79.875 250.896 82.375C252.146 84.7917 255.021 86 259.521 86C264.021 86 270.98 83.5 280.396 78.5V39.625H270.771ZM324.973 85.875H335.848V94H304.723V85.875H314.348V39.625H304.723V31.5H322.598L324.098 38.125C326.931 36.5417 329.223 35.3333 330.973 34.5C332.723 33.5833 335.223 32.6667 338.473 31.75C341.806 30.75 345.014 30.25 348.098 30.25L355.098 32.125L352.223 42.375L346.598 40.875C339.598 40.875 332.389 42.625 324.973 46.125V85.875ZM357.21 8.37499V0.249993H377.46V85.875H388.335V94H357.085V85.875H366.835V8.37499H357.21ZM403.45 86.125C398.2 79.9583 395.575 72.1667 395.575 62.75C395.575 53.3333 398.2 45.5833 403.45 39.5C408.7 33.3333 416.075 30.25 425.575 30.25C435.075 30.25 442.45 33.3333 447.7 39.5C452.95 45.5833 455.575 53.3333 455.575 62.75C455.575 72.1667 452.95 79.9583 447.7 86.125C442.45 92.2083 435.075 95.25 425.575 95.25C416.075 95.25 408.7 92.2083 403.45 86.125ZM411.325 46.125C407.909 50.4583 406.2 56 406.2 62.75C406.2 69.5 407.909 75.0417 411.325 79.375C414.742 83.7083 419.492 85.875 425.575 85.875C431.659 85.875 436.409 83.7083 439.825 79.375C443.242 75.0417 444.95 69.5 444.95 62.75C444.95 56 443.242 50.4583 439.825 46.125C436.409 41.7917 431.659 39.625 425.575 39.625C419.492 39.625 414.742 41.7917 411.325 46.125Z" fill="white"/>
</svg>
