<svg width="457" height="88" viewBox="0 0 457 88" fill="none" xmlns="http://www.w3.org/2000/svg">
<path d="M12.8 69.3C7.86667 69.3 4.13333 68.6333 1.6 67.3C1.06667 67.0333 0.8 66.5 0.8 65.7C1.13333 62.9 1.4 60.4 1.6 58.2C1.86667 55.9333 2.03333 53.9333 2.1 52.2L5 51.1C4.66667 55.7667 4.56667 58.5 4.7 59.3C4.96667 60.5667 5.73333 61.7 7 62.7C8.26667 63.6333 9.8 64.3667 11.6 64.9C13.4 65.4333 15.1 65.7 16.7 65.7C20.6333 65.7 23.8 64.5333 26.2 62.2C28.6 59.8 29.8 56.5 29.8 52.3C29.8 48.9 28.8333 46.0333 26.9 43.7C25.0333 41.3667 22.7333 39.3333 20 37.6C16.9333 35.6667 14.2667 33.9667 12 32.5C9.8 31.0333 8.1 29.3667 6.9 27.5C5.7 25.6333 5.1 23.1333 5.1 20C5.1 16.5333 6.13333 13.3667 8.2 10.5C10.2667 7.56666 13 5.23333 16.4 3.5C19.8667 1.7 23.6333 0.799995 27.7 0.799995H27.8C29.4667 0.799995 31.2 0.966661 33 1.29999C34.8 1.63333 36.3333 2.09999 37.6 2.69999C38.9333 3.29999 39.6 4.06666 39.6 4.99999C38.6667 7.06666 37.9333 9.16666 37.4 11.3C36.9333 13.4333 36.6333 15.5667 36.5 17.7L33.6 16.5C34.2667 15.3667 34.6 13.6333 34.6 11.3C34.6 8.76666 33.6 6.96666 31.6 5.89999C29.6 4.83333 27.4 4.3 25 4.3C21.3333 4.3 18.3667 5.46666 16.1 7.79999C13.9 10.0667 12.8 13.1 12.8 16.9C12.8 19.2333 13.3667 21.2333 14.5 22.9C15.6333 24.5 17.0333 25.9 18.7 27.1C20.4333 28.2333 22.1 29.3 23.7 30.3C27.2333 32.5 30.0667 34.5333 32.2 36.4C34.4 38.2 35.9667 40.0667 36.9 42C37.9 43.8667 38.4 46.0667 38.4 48.6C38.4 53.0667 37.2667 56.8333 35 59.9C32.8 62.9667 29.7667 65.3 25.9 66.9C22.1 68.5 17.7333 69.3 12.8 69.3ZM77.6227 68.8L79.3227 65.7C80.5893 65.7667 81.8893 65.5 83.2227 64.9C84.556 64.2333 85.456 63.3333 85.9227 62.2C86.5227 61 86.9227 59.5 87.1227 57.7C87.3227 55.9 87.556 52.9667 87.8227 48.9C88.156 44.5667 88.3893 41.2333 88.5227 38.9C88.656 36.5 88.7227 34.7667 88.7227 33.7C88.7227 30.3 88.056 27.7667 86.7227 26.1C85.456 24.4333 83.656 23.6 81.3227 23.6C79.7227 23.6 78.2227 23.8333 76.8227 24.3C75.4893 24.7667 74.156 25.3333 72.8227 26C70.0893 27.4 68.0227 28.9333 66.6227 30.6L65.9227 40.5C65.856 42.0333 65.756 43.8667 65.6227 46C65.4893 48.1333 65.3893 50.2667 65.3227 52.4C65.256 54.5333 65.2227 56.4667 65.2227 58.2C65.2227 59.8667 65.256 61.0333 65.3227 61.7C65.5893 64.4333 68.156 65.7667 73.0227 65.7L71.5227 68.7C70.656 68.3667 69.356 68.1333 67.6227 68C65.8893 67.8 63.6227 67.6667 60.8227 67.6C60.2893 67.6 58.6227 67.7 55.8227 67.9C53.0893 68.1 49.256 68.3667 44.3227 68.7L45.8227 65.8C46.0227 65.8667 46.256 65.9333 46.5227 66C46.856 66 47.1893 66 47.5227 66C49.7227 66 51.5893 65.6667 53.1227 65C55.1227 64.2 56.3893 63.0333 56.9227 61.5C57.1893 60.8333 57.4227 59.6 57.6227 57.8C57.8227 56 58.056 53.3667 58.3227 49.9C58.656 46.4333 59.0227 41.8667 59.4227 36.2C59.8227 31.0667 60.0893 27.0667 60.2227 24.2C60.4227 21.2667 60.556 19 60.6227 17.4C60.6893 15.8 60.7227 14.4667 60.7227 13.4C60.7227 8.6 60.356 5.76666 59.6227 4.9C58.6893 3.96666 57.256 3.5 55.3227 3.5C54.1227 3.5 52.7227 3.7 51.1227 4.09999L52.6227 1.2C52.8893 1.26666 53.4893 1.33333 54.4227 1.4C55.356 1.4 56.3893 1.43333 57.5227 1.5C58.7227 1.56666 59.7893 1.63333 60.7227 1.7C61.7227 1.7 62.3893 1.7 62.7227 1.7C63.656 1.7 64.7227 1.56666 65.9227 1.29999C67.1227 1.03333 68.056 0.9 68.7227 0.9C69.7893 0.9 70.256 1.36667 70.1227 2.3C70.056 3.1 69.9893 3.6 69.9227 3.8C69.856 4 69.7227 4.49999 69.5227 5.3C69.056 7.63333 68.6227 10.5333 68.2227 14C67.8227 17.4 67.4227 21.4333 67.0227 26.1C68.2893 25.4333 69.4227 24.8 70.4227 24.2C71.4893 23.6 72.456 23 73.3227 22.4C76.7893 19.9333 80.6893 18.7 85.0227 18.7C88.0893 18.7 90.7893 19.3333 93.1227 20.6C95.456 21.8667 96.6227 23.9333 96.6227 26.8C96.6227 27.8 96.556 29.4 96.4227 31.6C96.2893 33.7333 96.1227 36.1 95.9227 38.7C95.7893 41.2333 95.656 43.7 95.5227 46.1C95.456 49.5 95.3893 52.6667 95.3227 55.6C95.256 58.4667 95.256 60.4667 95.3227 61.6C95.5893 64.4 98.7227 65.8 104.723 65.8C105.189 65.8 105.556 65.8 105.823 65.8C106.156 65.8 106.456 65.7667 106.723 65.7L107.123 66.3L105.923 68.6C103.789 68.4 101.623 68.2333 99.4227 68.1C97.2227 67.9667 94.9893 67.9 92.7227 67.9C87.7893 67.9 82.756 68.2 77.6227 68.8ZM127.354 69.5C123.354 69.5 119.954 68.5667 117.154 66.7C114.421 64.8333 112.321 62.3 110.854 59.1C109.454 55.9 108.754 52.3333 108.754 48.4C108.754 43.8667 109.387 39.8667 110.654 36.4C111.921 32.9333 113.721 30.0667 116.054 27.8C116.387 27.5333 117.221 26.8667 118.554 25.8C119.887 24.6667 121.787 23.1333 124.254 21.2C126.321 19.5333 129.187 18.7 132.854 18.7C137.187 18.7 140.787 19.6667 143.654 21.6C146.587 23.5333 148.787 26.1667 150.254 29.5C151.787 32.8333 152.554 36.6333 152.554 40.9C152.554 45.3 151.954 49.1 150.754 52.3C149.621 55.4333 147.921 58.0667 145.654 60.2C144.787 60.8667 143.721 61.7333 142.454 62.8C141.254 63.8 139.821 64.9667 138.154 66.3C135.621 68.4333 132.021 69.5 127.354 69.5ZM130.754 64.2C133.954 64.2 136.621 63.2667 138.754 61.4C140.954 59.4667 142.621 57.0333 143.754 54.1C144.887 51.1 145.454 48.0333 145.454 44.9C145.454 41.3 144.787 37.9667 143.454 34.9C142.187 31.7667 140.387 29.2333 138.054 27.3C135.721 25.3667 133.054 24.4 130.054 24.4C127.121 24.4 124.621 25.4 122.554 27.4C120.487 29.3333 118.921 31.8667 117.854 35C116.854 38.0667 116.354 41.3 116.354 44.7C116.354 48.0333 116.887 51.2 117.954 54.2C119.087 57.2 120.721 59.6333 122.854 61.5C124.987 63.3 127.621 64.2 130.754 64.2ZM150.658 87.7L152.258 84.7C152.791 84.9 153.424 85 154.158 85C155.291 85 156.491 84.8 157.758 84.4C159.091 84 160.291 83.4333 161.358 82.7C162.424 82.0333 163.091 81.2667 163.358 80.4C163.624 79.5333 163.891 77.9333 164.158 75.6C164.491 73.2667 164.791 70.5 165.058 67.3C165.391 64.0333 165.691 60.6333 165.958 57.1C166.224 53.5667 166.458 50.1 166.658 46.7C166.858 43.3 167.024 40.3 167.158 37.7C167.291 35.0333 167.358 33.0333 167.358 31.7C167.358 28.1667 167.058 25.7333 166.458 24.4C165.924 23 164.491 22.3 162.158 22.3C161.558 22.3 160.891 22.3667 160.158 22.5C159.424 22.5667 158.591 22.6667 157.658 22.8L159.258 19.9C159.991 19.9667 161.124 20.0667 162.658 20.2C164.258 20.2667 165.991 20.3 167.858 20.3C169.924 20.3 171.558 20.2 172.758 20C173.958 19.7333 174.824 19.6 175.358 19.6C176.291 19.6 176.758 20.0667 176.758 21C176.758 21.0667 176.658 21.5333 176.458 22.4C176.324 23.2667 176.158 24.1667 175.958 25.1C175.758 26.0333 175.624 26.7 175.558 27.1C177.691 24.7 180.324 23 183.458 22C186.658 21 189.891 20.5 193.158 20.5C198.558 20.5 202.291 22.0667 204.358 25.2C206.491 28.2667 207.558 32.5 207.558 37.9C207.558 43.9667 206.791 49.3667 205.258 54.1C203.724 58.8333 201.258 62.5333 197.858 65.2C194.458 67.8667 189.958 69.2 184.358 69.2C178.691 69.2 174.658 67.5667 172.258 64.3C172.191 65.5 172.091 67.3333 171.958 69.8C171.891 72.3333 171.858 74.6667 171.858 76.8C171.858 77.5333 171.858 78.2 171.858 78.8C171.858 79.4 171.891 79.9333 171.958 80.4C172.091 81.8667 173.091 82.9333 174.958 83.6C176.824 84.3333 178.791 84.7 180.858 84.7C181.258 84.7 181.658 84.7 182.058 84.7C182.458 84.7 182.824 84.6667 183.158 84.6L181.458 87.7C178.658 86.7667 173.991 86.3667 167.458 86.5C166.991 86.5 166.024 86.5333 164.558 86.6C163.158 86.6667 161.524 86.7667 159.658 86.9C157.791 87.0333 156.024 87.1667 154.358 87.3C152.758 87.4333 151.524 87.5667 150.658 87.7ZM183.858 65.5C187.724 65.5 190.791 64.4 193.058 62.2C195.324 60 196.958 57.1 197.958 53.5C198.958 49.8333 199.458 45.8667 199.458 41.6C199.458 36.6667 198.624 32.6667 196.958 29.6C195.291 26.5333 192.458 25 188.458 25C183.391 25 179.358 27.3333 176.358 32C174.491 34.8667 173.424 39 173.158 44.4C173.091 45.1333 173.058 45.8667 173.058 46.6C173.058 47.2667 173.058 47.9667 173.058 48.7C173.058 51.8333 173.358 54.7 173.958 57.3C174.624 59.8333 175.724 61.8333 177.258 63.3C178.858 64.7667 181.058 65.5 183.858 65.5ZM307.521 74.6C307.054 73.4667 305.654 71.4 303.321 68.4C300.988 65.4667 297.688 61.6667 293.421 57C289.554 52.6667 286.188 48.9333 283.321 45.8C280.521 42.6667 278.054 39.9 275.921 37.5C273.788 35.1 271.821 32.9 270.021 30.9C268.221 28.8333 266.421 26.7667 264.621 24.7C262.888 22.6333 260.954 20.3667 258.821 17.9C258.554 19.6333 258.254 21.9667 257.921 24.9C257.588 27.7667 257.288 30.9 257.021 34.3C256.754 37.6333 256.521 41 256.321 44.4C256.188 47.8 256.121 50.8667 256.121 53.6C256.121 55.4667 256.154 57.1667 256.221 58.7C256.354 60.1667 256.521 61.2667 256.721 62C257.254 63.5333 258.254 64.5667 259.721 65.1C261.188 65.6333 262.654 65.9 264.121 65.9C264.654 65.9 265.121 65.9 265.521 65.9C265.988 65.8333 266.388 65.7667 266.721 65.7L264.921 68.7C262.654 68.3667 260.621 68.1333 258.821 68C257.021 67.8667 254.788 67.8 252.121 67.8C248.854 67.8 246.188 67.9 244.121 68.1C242.121 68.3 240.454 68.5667 239.121 68.9L240.821 65.9C242.688 65.9 244.321 65.6 245.721 65C247.188 64.3333 248.054 63.1667 248.321 61.5C248.854 58.5667 249.388 55 249.921 50.8C250.454 46.6 250.921 42.2 251.321 37.6C251.788 33 252.154 28.5667 252.421 24.3C252.688 20.0333 252.821 16.3667 252.821 13.3C252.821 9.56666 252.554 6.96666 252.021 5.5C251.488 4.03333 249.988 3.3 247.521 3.3C246.854 3.3 246.154 3.33333 245.421 3.4C244.688 3.46666 243.854 3.56666 242.921 3.7L244.521 0.699996C245.254 0.766662 246.088 0.83333 247.021 0.9C248.021 0.966665 249.054 0.999998 250.121 0.999998C251.388 0.999998 252.621 0.966665 253.821 0.9C255.088 0.83333 256.221 0.766662 257.221 0.699996C260.688 5.63333 263.854 10.0333 266.721 13.9C269.654 17.7 272.454 21.2333 275.121 24.5C277.854 27.7 280.588 30.8 283.321 33.8C286.121 36.8 289.088 39.9333 292.221 43.2C295.421 46.4667 298.954 50.0667 302.821 54C303.088 52.6667 303.354 50.7 303.621 48.1C303.954 45.5 304.254 42.5667 304.521 39.3C304.854 36.0333 305.121 32.7 305.321 29.3C305.588 25.9 305.788 22.6667 305.921 19.6C306.054 16.5333 306.121 13.9667 306.121 11.9C306.121 8.56666 305.788 6.2 305.121 4.8C304.521 3.4 303.054 2.69999 300.721 2.69999C300.054 2.69999 299.354 2.76666 298.621 2.9C297.888 2.96666 297.054 3.06666 296.121 3.2L297.521 0.599998C297.921 0.666663 299.154 0.799997 301.221 0.999998C303.288 1.2 306.221 1.4 310.021 1.6C317.554 1.06666 321.888 0.53333 323.021 -7.15256e-07L321.521 2.4C317.254 2.4 314.788 3.63333 314.121 6.1C313.721 7.43333 313.288 9.6 312.821 12.6C312.421 15.5333 311.988 18.9667 311.521 22.9C311.121 26.7667 310.754 30.8333 310.421 35.1C310.088 39.3667 309.788 43.5667 309.521 47.7C309.254 51.7667 309.054 55.4667 308.921 58.8C308.788 62.0667 308.721 64.6667 308.721 66.6C308.721 68.0667 308.754 69.3667 308.821 70.5C308.888 71.7 308.988 72.7333 309.121 73.6L307.521 74.6ZM343.346 69.5C339.346 69.5 335.946 68.5667 333.146 66.7C330.413 64.8333 328.313 62.3 326.846 59.1C325.446 55.9 324.746 52.3333 324.746 48.4C324.746 43.8667 325.379 39.8667 326.646 36.4C327.913 32.9333 329.713 30.0667 332.046 27.8C332.379 27.5333 333.213 26.8667 334.546 25.8C335.879 24.6667 337.779 23.1333 340.246 21.2C342.313 19.5333 345.179 18.7 348.846 18.7C353.179 18.7 356.779 19.6667 359.646 21.6C362.579 23.5333 364.779 26.1667 366.246 29.5C367.779 32.8333 368.546 36.6333 368.546 40.9C368.546 45.3 367.946 49.1 366.746 52.3C365.613 55.4333 363.913 58.0667 361.646 60.2C360.779 60.8667 359.713 61.7333 358.446 62.8C357.246 63.8 355.813 64.9667 354.146 66.3C351.613 68.4333 348.013 69.5 343.346 69.5ZM346.746 64.2C349.946 64.2 352.613 63.2667 354.746 61.4C356.946 59.4667 358.613 57.0333 359.746 54.1C360.879 51.1 361.446 48.0333 361.446 44.9C361.446 41.3 360.779 37.9667 359.446 34.9C358.179 31.7667 356.379 29.2333 354.046 27.3C351.713 25.3667 349.046 24.4 346.046 24.4C343.113 24.4 340.613 25.4 338.546 27.4C336.479 29.3333 334.913 31.8667 333.846 35C332.846 38.0667 332.346 41.3 332.346 44.7C332.346 48.0333 332.879 51.2 333.946 54.2C335.079 57.2 336.713 59.6333 338.846 61.5C340.979 63.3 343.613 64.2 346.746 64.2ZM394.05 70.1C393.983 69.7667 393.683 69.2333 393.15 68.5C392.617 67.7667 391.95 66.9333 391.15 66C390.417 65.1333 389.783 64.3333 389.25 63.6C388.783 62.8667 388.483 62.2 388.35 61.6C388.017 60 387.483 57.7667 386.75 54.9C386.017 52.0333 385.15 48.9333 384.15 45.6C383.217 42.2667 382.25 39.0667 381.25 36C380.25 32.8667 379.283 30.2 378.35 28C377.483 25.8 376.75 24.4667 376.15 24C375.55 23.4667 374.65 23.1 373.45 22.9C372.25 22.6333 371.15 22.5 370.15 22.5C369.417 22.5 368.783 22.5667 368.25 22.7L367.75 22.1L368.95 19.8C369.15 19.8667 369.883 19.9667 371.15 20.1C372.417 20.1667 373.85 20.2667 375.45 20.4C377.117 20.4667 378.583 20.5333 379.85 20.6C381.183 20.6667 381.983 20.7 382.25 20.7C384.317 20.7 386.55 20.6333 388.95 20.5C391.417 20.3 394.083 20.0333 396.95 19.7L394.85 22.7C392.783 22.7 390.983 22.9333 389.45 23.4C387.983 23.8 387.25 24.5333 387.25 25.6C387.117 27.4667 387.717 31 389.05 36.2C390.45 41.3333 392.683 48.3667 395.75 57.3C397.083 54.5667 398.35 51.9 399.55 49.3C400.75 46.7 401.983 43.8 403.25 40.6C405.783 34.4667 407.283 30 407.75 27.2C407.017 25.4667 406.383 24.4 405.85 24C405.25 23.4667 404.35 23.1 403.15 22.9C401.95 22.6333 400.85 22.5 399.85 22.5C399.117 22.5 398.483 22.5667 397.95 22.7L397.45 22.1L398.65 19.8C398.85 19.8667 399.583 19.9667 400.85 20.1C402.117 20.1667 403.55 20.2667 405.15 20.4C406.817 20.4667 408.283 20.5333 409.55 20.6C410.883 20.6667 411.683 20.7 411.95 20.7C414.017 20.7 416.25 20.6333 418.65 20.5C421.117 20.3 423.783 20.0333 426.65 19.7L424.55 22.7C422.483 22.7 420.683 22.9333 419.15 23.4C417.683 23.8 416.95 24.5333 416.95 25.6C416.817 27.4667 417.417 31 418.75 36.2C420.15 41.3333 422.383 48.3667 425.45 57.3C426.783 54.5667 428.05 51.9 429.25 49.3C430.45 46.7 431.683 43.8 432.95 40.6C434.483 36.8667 435.65 33.7667 436.45 31.3C437.25 28.7667 437.65 26.8333 437.65 25.5C437.65 24.3667 437.05 23.6 435.85 23.2C434.65 22.8 433.383 22.6 432.05 22.6C431.65 22.6 431.25 22.6333 430.85 22.7C430.517 22.7 430.183 22.7333 429.85 22.8L429.45 22.2L431.15 19.9C431.283 19.9 432.083 19.9667 433.55 20.1C435.083 20.1667 436.783 20.2667 438.65 20.4C440.517 20.4667 442.017 20.5 443.15 20.5C444.883 20.5 447.05 20.4333 449.65 20.3C452.25 20.1 454.45 19.9 456.25 19.7L454.45 22.4C453.517 22.4 452.517 22.5333 451.45 22.8C450.383 23.0667 449.217 23.5333 447.95 24.2C444.55 26.2667 440.217 33.0333 434.95 44.5C430.283 54.3667 427.117 62.7 425.45 69.5L423.75 70.1C423.683 69.7667 423.383 69.2333 422.85 68.5C422.317 67.7667 421.65 66.9333 420.85 66C420.117 65.1333 419.483 64.3333 418.95 63.6C418.483 62.8667 418.183 62.2 418.05 61.6C417.717 59.8667 417.15 57.4667 416.35 54.4C415.55 51.2667 414.617 47.9 413.55 44.3C412.55 40.7 411.517 37.3667 410.45 34.3C409.583 35.7 408.717 37.2667 407.85 39C407.05 40.7333 406.183 42.5667 405.25 44.5C400.583 54.3667 397.417 62.7 395.75 69.5L394.05 70.1Z" fill="white"/>
</svg>
